<?xml version="1.0" encoding="UTF-8"?>
<svg xmlns="http://www.w3.org/2000/svg" width="100" height="5">
    <g>
      <path stroke="black" stroke-width="0.1" d="M 2.5,0 L 5,0 L 5,5 L 0,5 L 0,0 L 2.5,0"/>

      <line stroke-width="5" stroke="black" x1="0" y1="11" x2="100" y2="11"/>

      <line x1="0" y1="0" x2="5" y2="5"/>
      <line x1="1" y1="0" x2="5" y2="4"/>
      <line x1="2" y1="0" x2="5" y2="3"/>
      <line x1="3" y1="0" x2="5" y2="2"/>
      <line x1="4" y1="0" x2="5" y2="1"/>
      <line x1="0" y1="1" x2="4" y2="5"/>
      <line x1="0" y1="2" x2="3" y2="5"/>
      <line x1="0" y1="3" x2="2" y2="5"/>
      <line x1="0" y1="4" x2="1" y2="5"/>

      <line x1="0" y1="5" x2="5" y2="0"/>
      <line x1="1" y1="5" x2="5" y2="1"/>
      <line x1="2" y1="5" x2="5" y2="2"/>
      <line x1="3" y1="5" x2="5" y2="3"/>
      <line x1="4" y1="5" x2="5" y2="4"/>
      <line x1="0" y1="4" x2="4" y2="0"/>
      <line x1="0" y1="3" x2="3" y2="0"/>
      <line x1="0" y1="2" x2="2" y2="0"/>
      <line x1="0" y1="1" x2="1" y2="0"/>
    </g>
  </svg>
